<svg width="32" height="33" viewBox="0 0 32 33" fill="none" xmlns="http://www.w3.org/2000/svg">
<path fill-rule="evenodd" clip-rule="evenodd" d="M22.0471 26.3566C20.2774 27.4108 18.2093 28.0163 15.9998 28.0163C13.7904 28.0163 11.7224 27.4108 9.95267 26.3566C9.95334 25.9008 9.95641 25.4703 9.97026 25.0948C9.98892 24.5887 10.0256 24.2746 10.0665 24.1396C10.3233 23.2931 10.9858 22.6306 11.8323 22.3739C12.1814 22.2679 12.6353 22.2598 13.8757 22.2598H18.124C19.3644 22.2598 19.8183 22.2679 20.1674 22.3739C21.014 22.6306 21.6764 23.2931 21.9332 24.1396C21.9741 24.2746 22.0108 24.5887 22.0295 25.0948C22.0433 25.4703 22.0464 25.9008 22.0471 26.3566ZM23.5365 25.3063C23.5343 25.2152 23.5316 25.1261 23.5284 25.0395C23.5105 24.5536 23.474 24.0516 23.3686 23.7042C22.9664 22.3783 21.9288 21.3407 20.6029 20.9384C20.0122 20.7593 19.3146 20.7595 18.2601 20.7598H18.26L18.124 20.7598H13.8757L13.7397 20.7598H13.7397C12.6851 20.7595 11.9876 20.7593 11.3969 20.9384C10.0709 21.3407 9.03333 22.3783 8.63112 23.7042C8.52572 24.0516 8.4892 24.5536 8.47128 25.0395C8.46808 25.1261 8.46543 25.2152 8.46323 25.3063C5.83877 23.1358 4.1665 19.8547 4.1665 16.183C4.1665 9.64763 9.46447 4.34967 15.9998 4.34967C22.5352 4.34967 27.8332 9.64763 27.8332 16.183C27.8332 19.8547 26.1609 23.1358 23.5365 25.3063ZM29.3332 16.183C29.3332 23.5468 23.3636 29.5163 15.9998 29.5163C8.63604 29.5163 2.6665 23.5468 2.6665 16.183C2.6665 8.81921 8.63604 2.84967 15.9998 2.84967C23.3636 2.84967 29.3332 8.81921 29.3332 16.183ZM12.9263 14.7124C12.9263 13.015 14.3024 11.6389 15.9999 11.6389C17.6973 11.6389 19.0734 13.015 19.0734 14.7124C19.0734 16.4099 17.6973 17.786 15.9999 17.786C14.3024 17.786 12.9263 16.4099 12.9263 14.7124ZM15.9999 10.1389C13.474 10.1389 11.4263 12.1865 11.4263 14.7124C11.4263 17.2383 13.474 19.286 15.9999 19.286C18.5258 19.286 20.5734 17.2383 20.5734 14.7124C20.5734 12.1865 18.5258 10.1389 15.9999 10.1389Z" fill="#676D7E"/>
</svg>
