<svg width="32" height="33" viewBox="0 0 32 33" fill="none" xmlns="http://www.w3.org/2000/svg">
<path fill-rule="evenodd" clip-rule="evenodd" d="M2.90088 8.33984C2.90088 7.92563 3.23667 7.58984 3.65088 7.58984H28.3494C28.7636 7.58984 29.0994 7.92563 29.0994 8.33984C29.0994 8.75406 28.7636 9.08984 28.3494 9.08984H3.65088C3.23667 9.08984 2.90088 8.75406 2.90088 8.33984ZM2.90088 16.183C2.90088 15.7688 3.23667 15.433 3.65088 15.433H28.3494C28.7636 15.433 29.0994 15.7688 29.0994 16.183C29.0994 16.5972 28.7636 16.933 28.3494 16.933H3.65088C3.23667 16.933 2.90088 16.5972 2.90088 16.183ZM3.65088 23.2761C3.23667 23.2761 2.90088 23.6119 2.90088 24.0261C2.90088 24.4403 3.23667 24.7761 3.65088 24.7761H28.3494C28.7636 24.7761 29.0994 24.4403 29.0994 24.0261C29.0994 23.6119 28.7636 23.2761 28.3494 23.2761H3.65088Z" fill="black"/>
</svg>
