<svg width="22" height="29" viewBox="0 0 22 29" fill="none" xmlns="http://www.w3.org/2000/svg">
<rect width="22" height="28" transform="translate(0 0.365967)" fill="#226BD9"/>
<path d="M18.9038 6.40184C17.8415 6.49287 17.2353 7.43319 17.2353 8.7076V9.73896H13.7762V9.01072C13.7762 7.16011 12.6228 6.37087 11.3184 6.37087C10.0139 6.37087 8.76956 7.25114 8.76956 8.82866C8.76956 10.4062 9.89193 10.9833 11.0153 11.5295L14.1713 13.107C16.447 14.2294 18.5106 15.868 18.5106 19.0849C18.5106 22.514 16.1739 25.366 11.8955 25.366C9.37673 25.366 7.55614 24.3646 6.73688 22.7261C6.16067 24.2126 4.49117 24.9409 3.0957 24.9409V22.24C4.15802 22.149 4.76426 21.2086 4.76426 19.9342V17.9316H8.22338V19.236C8.22338 20.6625 9.01262 22.24 11.2574 22.24C13.23 22.24 14.0793 20.9956 14.0793 19.6912C14.0793 18.1437 12.9259 17.5365 11.6215 16.8693L8.61753 15.3518C6.67588 14.3805 4.52121 12.773 4.52121 9.46493C4.52121 5.85379 7.10006 3.36597 10.8632 3.36597C13.078 3.36597 14.7475 4.21526 15.4457 5.79373C16.0528 4.39826 17.5093 3.70005 18.9048 3.70005V6.4009L18.9038 6.40184Z" fill="white"/>
</svg>
