<svg width="80" height="33" viewBox="0 0 80 33" fill="none" xmlns="http://www.w3.org/2000/svg">
<rect x="1" y="1" width="78" height="31" fill="white" stroke="#023D82" stroke-width="2"/>
<rect y="0.217377" width="26" height="32.7826" fill="#023D82"/>
<path d="M22.3405 7.28422C21.0851 7.3908 20.3686 8.49174 20.3686 9.98382V11.1913H16.2806V10.3387C16.2806 8.172 14.9175 7.24796 13.3759 7.24796C11.8343 7.24796 10.3637 8.27858 10.3637 10.1256C10.3637 11.9725 11.6901 12.6483 13.0177 13.2877L16.7475 15.1347C19.437 16.4488 21.8758 18.3672 21.8758 22.1337C21.8758 26.1485 19.1142 29.4876 14.058 29.4876C11.0812 29.4876 8.92963 28.3152 7.96141 26.3968C7.28044 28.1372 5.30739 28.9898 3.6582 28.9898V25.8277C4.91367 25.7211 5.63014 24.6201 5.63014 23.1281V20.7833H9.71818V22.3106C9.71818 23.9807 10.6509 25.8277 13.3038 25.8277C15.6351 25.8277 16.6388 24.3707 16.6388 22.8435C16.6388 21.0317 15.2758 20.3208 13.7341 19.5396L10.184 17.7629C7.88933 16.6257 5.34289 14.7436 5.34289 10.8705C5.34289 6.64256 8.39062 3.7298 12.838 3.7298C15.4554 3.7298 17.4285 4.72416 18.2536 6.57224C18.9712 4.93841 20.6925 4.12095 22.3417 4.12095V7.28312L22.3405 7.28422Z" fill="white"/>
<path d="M43.514 11.134V19.787C43.514 20.875 43.208 21.7193 42.596 22.32C41.9953 22.9093 41.1113 23.204 39.944 23.204C38.8333 23.204 38.0003 22.9207 37.445 22.354C36.901 21.7873 36.544 20.9827 36.374 19.94L38.584 19.481C38.6633 20.0817 38.805 20.4953 39.009 20.722C39.213 20.9487 39.5133 21.062 39.91 21.062C40.2727 21.062 40.556 20.96 40.76 20.756C40.9753 20.552 41.083 20.1837 41.083 19.651V13.089H37.904V11.134H43.514ZM50.3966 23.204C49.6826 23.204 49.0366 23.0963 48.4586 22.881C47.8806 22.6543 47.3876 22.2973 46.9796 21.81C46.5716 21.3113 46.2543 20.6767 46.0276 19.906C45.8009 19.124 45.6876 18.1777 45.6876 17.067C45.6876 15.9563 45.8009 15.0157 46.0276 14.245C46.2543 13.463 46.5716 12.8283 46.9796 12.341C47.3876 11.8423 47.8806 11.4853 48.4586 11.27C49.0366 11.0433 49.6826 10.93 50.3966 10.93C51.1106 10.93 51.7566 11.0433 52.3346 11.27C52.9126 11.4853 53.4056 11.8423 53.8136 12.341C54.2216 12.8283 54.5389 13.463 54.7656 14.245C54.9923 15.0157 55.1056 15.9563 55.1056 17.067C55.1056 18.1777 54.9923 19.124 54.7656 19.906C54.5389 20.6767 54.2216 21.3113 53.8136 21.81C53.4056 22.2973 52.9126 22.6543 52.3346 22.881C51.7566 23.0963 51.1106 23.204 50.3966 23.204ZM50.3966 21.062C51.0766 21.062 51.5979 20.858 51.9606 20.45C52.3346 20.042 52.5216 19.43 52.5216 18.614V15.52C52.5216 14.704 52.3346 14.092 51.9606 13.684C51.5979 13.276 51.0766 13.072 50.3966 13.072C49.7166 13.072 49.1896 13.276 48.8156 13.684C48.4529 14.092 48.2716 14.704 48.2716 15.52V18.614C48.2716 19.43 48.4529 20.042 48.8156 20.45C49.1896 20.858 49.7166 21.062 50.3966 21.062ZM57.3428 11.134H62.6128C63.5648 11.134 64.2675 11.4117 64.7208 11.967C65.1855 12.5223 65.4178 13.259 65.4178 14.177C65.4178 14.6757 65.3555 15.0893 65.2308 15.418C65.1175 15.7353 64.9645 15.9903 64.7718 16.183C64.5905 16.3643 64.3808 16.5003 64.1428 16.591C63.9048 16.6703 63.6612 16.7157 63.4118 16.727V16.999C63.6838 16.999 63.9615 17.0443 64.2448 17.135C64.5395 17.2257 64.8058 17.3787 65.0438 17.594C65.2818 17.798 65.4745 18.07 65.6218 18.41C65.7692 18.7387 65.8428 19.141 65.8428 19.617C65.8428 20.0817 65.7805 20.5237 65.6558 20.943C65.5312 21.351 65.3498 21.708 65.1118 22.014C64.8738 22.32 64.5848 22.5637 64.2448 22.745C63.9048 22.915 63.5195 23 63.0888 23H57.3428V11.134ZM59.7738 20.943H62.4088C62.6808 20.943 62.8962 20.8637 63.0548 20.705C63.2248 20.5463 63.3098 20.28 63.3098 19.906V19.056C63.3098 18.682 63.2248 18.4157 63.0548 18.257C62.8962 18.0983 62.6808 18.019 62.4088 18.019H59.7738V20.943ZM59.7738 16.013H62.0178C62.3012 16.013 62.5222 15.9337 62.6808 15.775C62.8395 15.6163 62.9188 15.3557 62.9188 14.993V14.211C62.9188 13.8483 62.8395 13.5877 62.6808 13.429C62.5222 13.2703 62.3012 13.191 62.0178 13.191H59.7738V16.013Z" fill="#023D82"/>
</svg>
