<svg width="318" height="40" viewBox="0 0 318 40" fill="none" xmlns="http://www.w3.org/2000/svg">
<path d="M176.886 7.07194V28.8622C176.886 31.0341 176.15 32.9905 172.381 32.9905V38.3394C176.725 38.3394 179.543 37.0112 180.961 35.1085C182.397 37.0112 185.197 38.3394 189.54 38.3394V32.9905C185.771 32.9905 185.035 31.0341 185.035 28.8622V7.07194H187.207C190.276 7.07194 192.197 8.02325 192.089 12.9593H197.277V0.610265H193.041C192.035 1.83081 190.976 1.99233 187.207 1.99233H174.697C170.927 1.99233 169.868 1.83081 168.863 0.610265H164.627V12.9593H169.814C169.707 8.02325 171.609 7.07194 174.697 7.07194H176.886Z" fill="#010C27"/>
<path d="M199.987 25.4519V29.4187C199.987 31.7521 198.874 32.9726 197.079 32.9726V38.3214C199.466 38.3214 202.482 37.3163 203.81 34.8214C205.408 37.4778 208.585 39.0574 212.767 39.0574C220.449 39.0574 224.631 33.9239 224.631 27.7673C224.631 21.9877 220.916 18.8646 216.949 17.0158L211.169 14.3055C209.572 13.5695 207.4 12.5644 207.4 9.80022C207.4 7.30529 209.195 5.88732 211.474 5.88732C213.754 5.88732 215.495 7.16171 215.495 10.1772V11.7746H222.172V10.1772C222.172 8.48995 222.657 6.30015 225.08 5.94117V0.592298C222.639 0.592298 220.036 1.6513 218.726 3.877C217.29 1.32822 214.436 0 210.721 0C203.99 0 199.323 4.50521 199.323 10.9669C199.323 16.9081 203.254 19.9235 206.628 21.521L212.192 24.1236C213.987 24.9673 216.213 26.0263 216.213 28.7904C216.213 31.0161 214.723 32.9726 211.546 32.9726C207.885 32.9726 206.61 30.37 206.61 27.9827V25.4339H199.933L199.987 25.4519Z" fill="#010C27"/>
<path d="M154.414 35.2162C155.742 37.1727 158.704 38.3394 162.473 38.3394V32.9905C159.242 32.9905 158.506 31.0341 158.506 28.8622V10.1054C158.506 7.93351 159.242 5.97704 162.473 5.97704V0.628204C158.704 0.628204 155.742 1.79491 154.414 3.75137C153.086 1.79491 150.124 0.628204 146.355 0.628204V5.97704C149.586 5.97704 150.322 7.93351 150.322 10.1054V28.8622C150.322 31.0341 149.586 32.9905 146.355 32.9905V38.3394C150.124 38.3394 153.086 37.1727 154.414 35.2162Z" fill="#010C27"/>
<path d="M296.876 39.183C300.843 39.183 304.289 37.9625 307.107 35.8983C309.333 38.3932 313.569 39.0215 317.5 38.4471V33.0444C314.269 33.3675 312.42 32.7751 311.308 31.5007C313.479 28.2699 314.7 24.1954 314.7 19.7799C314.7 9.11815 307.341 0.376917 296.894 0.376917C286.448 0.376917 279.089 9.11815 279.089 19.7799C279.089 30.4417 286.251 39.183 296.894 39.183H296.876ZM296.876 6.21039C302.764 6.21039 305.887 10.7156 305.887 19.8338C305.887 21.521 305.779 23.1723 305.456 24.7698C302.495 21.0543 297.612 21.162 295.064 22.5441V27.7853C297.774 26.7801 299.892 27.6237 301.794 29.6879L302.853 30.8546C301.364 32.5059 299.407 33.3495 296.858 33.3495C290.971 33.3495 287.902 28.8443 287.902 19.7799C287.902 10.7156 290.971 6.21039 296.858 6.21039H296.876Z" fill="#010C27"/>
<path d="M235.078 35.2162C236.406 37.1727 239.367 38.3394 243.137 38.3394V32.9905C239.906 32.9905 239.17 31.0341 239.17 28.8622V10.1054C239.17 7.93351 239.906 5.97704 243.137 5.97704V0.628204C239.367 0.628204 236.406 1.79491 235.078 3.75137C233.749 1.79491 230.788 0.628204 227.018 0.628204V5.97704C230.249 5.97704 230.985 7.93351 230.985 10.1054V28.8622C230.985 31.0341 230.249 32.9905 227.018 32.9905V38.3394C230.788 38.3394 233.749 37.1727 235.078 35.2162Z" fill="#010C27"/>
<path d="M251.411 35.8444C253.009 38.1778 256.078 38.5009 258.77 38.3394V32.9905C255.809 32.9905 254.84 31.77 255.647 29.0776L256.545 26.116H266.937L267.673 28.3417C268.786 31.6264 267.565 33.0085 265.178 33.0085V38.3573C268.571 38.3573 271.425 37.2983 272.645 35.2342C274.189 37.7291 277.473 38.5727 281.027 38.3573V33.0085C278.802 32.9546 277.689 32.2726 276.576 29.293L269.271 9.94382C268.373 7.55658 269.109 5.97704 271.658 5.97704V0.628201C266.937 0.412812 264.299 1.25643 262.324 3.80521C260.529 1.20258 257.191 0.466659 253.529 0.628201V6.03089C255.432 5.76165 257.137 6.56937 255.916 9.99766L249.024 29.7597C248.288 31.8777 246.852 32.9905 244.626 32.9905V38.3394C247.642 38.3394 249.975 37.6035 251.411 35.8444ZM261.535 11.0387L265.089 21.0005H258.196L261.535 11.0387Z" fill="#010C27"/>
<path d="M105.61 35.2162C106.885 37.065 109.38 38.3394 113.185 38.3394V32.9905C109.954 32.9905 109.218 31.0341 109.218 28.8622V11.2721L120.023 38.4112L131.206 11.2182V28.8622C131.206 31.0341 130.47 32.9905 127.239 32.9905V38.3394C131.008 38.3394 133.97 37.1727 135.298 35.2162C136.626 37.1727 139.588 38.3394 143.357 38.3394V32.9905C140.126 32.9905 139.391 31.0341 139.391 28.8622V10.1054C139.391 7.93351 140.126 5.97704 143.357 5.97704V0.628204C139.588 0.628204 136.788 1.41798 135.298 3.69752C134.454 2.15389 132.444 0.628204 129.106 0.628204L120.418 22.8852L112.413 0.628204C109.236 0.628204 107.226 2.36928 106.364 3.69752C104.874 1.25644 101.859 0.628204 98.0896 0.628204V5.97704C101.32 5.97704 102.056 7.93351 102.056 10.1054V28.8622C102.056 31.0341 101.32 32.9905 98.0896 32.9905V38.3394C101.913 38.3394 104.336 37.065 105.61 35.2162Z" fill="#010C27"/>
<path d="M7.28478 34.8393C8.88225 37.4958 12.0592 39.0753 16.2414 39.0753C23.9236 39.0753 28.1058 33.9418 28.1058 27.7853C28.1058 22.0057 24.3903 18.8825 20.4235 17.0337L14.6439 14.3234C13.0465 13.5875 10.8746 12.5823 10.8746 9.81816C10.8746 7.32323 12.6695 5.90526 14.949 5.90526C17.2286 5.90526 18.9696 7.17965 18.9696 10.1951V11.7926H25.6467V10.1951C25.6467 8.50789 26.1314 6.31809 28.5545 5.95911V0.610265C26.1135 0.610265 23.5108 1.66927 22.2005 3.89496C20.7646 1.34618 17.9107 0.0179393 14.1952 0.0179393C7.46428 0.0179393 2.79749 4.52318 2.79749 10.9849C2.79749 16.926 6.72831 19.9415 10.1028 21.539L15.667 24.1416C17.4619 24.9852 19.6877 26.0442 19.6877 28.8084C19.6877 31.0341 18.1979 32.9905 15.0209 32.9905C11.3592 32.9905 10.0848 30.3879 10.0848 28.0007V25.4519H3.40775V29.4187C3.40775 31.7521 2.29492 32.9726 0.5 32.9726V38.3214C2.88724 38.3214 5.9027 37.3163 7.23093 34.8214L7.28478 34.8393Z" fill="#010C27"/>
<path d="M69.9812 35.1085C71.4171 37.0112 74.1633 38.3394 78.507 38.3394V32.9905C74.7377 32.9905 74.0556 30.9264 74.0556 28.8084V22.6518H76.7121C79.1532 22.6518 80.8404 23.1364 82.0071 26.2596L84.0713 31.6623C85.2918 34.8393 86.7277 38.3394 93.0817 38.3394H96.5818V32.9905H96.0433C94.033 32.9905 93.2253 31.8777 92.3817 30.0828L90.2637 25.5237C89.097 22.9749 87.5534 21.2877 85.4354 20.3902C89.9406 19.2235 93.2792 15.7234 93.2792 10.7515C93.2792 5.29498 89.097 0.628204 80.9302 0.628204H61.9579V5.97704C65.2426 5.97704 65.8888 7.82582 65.8888 9.58484V28.8802C65.8888 31.052 65.1529 33.0085 61.922 33.0085V38.3573C65.7452 38.3573 68.5452 37.0291 69.9812 35.1265V35.1085ZM74.0736 5.85141H78.5788C82.4558 5.85141 84.8251 8.02326 84.8251 11.6849C84.8251 14.5927 83.2815 17.5722 78.5788 17.5722H74.0736V5.85141Z" fill="#010C27"/>
<path d="M60.0732 27.2109H55.0295C54.1321 32.0392 52.373 33.4034 48.2447 33.4034H45.3908C42.842 33.4034 42.5369 31.9674 42.5369 30.1187V21.7005H43.0216C45.0857 21.7005 46.8447 22.8672 46.8447 26.3673H51.8884C52.4269 23.298 51.3499 20.3723 49.2319 19.062C51.3499 17.7338 52.409 14.826 51.8884 11.7567H46.8447C46.8447 15.2568 45.1037 16.4235 43.0216 16.4235H42.5369V5.56422H48.6396C51.7089 5.56422 53.3602 7.10786 53.8269 10.1772H58.8706V0.628204H30.511V5.97704C33.7957 5.97704 34.388 7.82582 34.388 9.58484V28.8802C34.388 30.9443 33.5444 33.0085 30.511 33.0085V38.3573H60.0912V27.2289L60.0732 27.2109Z" fill="#010C27"/>
</svg>
